<svg xmlns="http://www.w3.org/2000/svg" viewBox="0 0 24 24" role="img"><path fill="#000000" d="M4.459 4.208c.746.606 1.026.56 2.428.466l13.215-.793c.28 0 .047-.28-.046-.326L17.86 1.968c-.42-.326-.98-.7-2.055-.607L3.01 2.295c-.466.046-.56.28-.374.466zm.793 3.08v13.904c0 .747.374 1.027 1.214.98l14.523-.84c.841-.046.935-.56.935-1.167V6.354c0-.606-.233-.933-.748-.887l-15.177.887c-.56.047-.747.327-.747.933zm14.337 1.214c.093.42 0 .84-.42.888l-.7.14v10.264c-.608.327-1.168.514-1.635.514-.748 0-.935-.234-1.495-.933l-4.577-7.186v6.952l1.449.327s0 .84-1.168.84l-3.22.186c-.093-.186 0-.653.327-.746l.84-.233V9.298l-1.168-.14c-.093-.42.14-.98.514-1.027l3.453-.233 4.764 7.279v-6.44l-1.215-.14c-.093-.513.28-.887.747-.933z"/></svg>