<svg width="20" height="15" viewBox="0 0 20 15" fill="none" xmlns="http://www.w3.org/2000/svg">
<path d="M0 14.0823L0 0.228871C0 0.13463 0.0406071 0.0807779 0.135357 0.0807779C0.365464 0.0807779 0.582034 0.0807781 0.893355 0.0673151C1.21821 0.0538521 1.5566 0.053852 1.92207 0.0403889C2.28753 0.0269259 2.68007 0.0269258 3.09967 0.0134628C3.51928 -2.0563e-07 3.92535 0 4.33142 0C5.44135 0 6.36177 0.13463 7.11977 0.417353C7.79656 0.646224 8.4192 1.02319 8.93355 1.52132C9.3667 1.95214 9.70509 2.47719 9.92166 3.0561C10.1247 3.62155 10.233 4.20046 10.233 4.8063C10.233 5.96412 9.96227 6.91999 9.42084 7.67392C8.87941 8.42785 8.12141 8.99329 7.24159 9.31641C6.32117 9.65298 5.30599 9.77415 4.19606 9.77415C3.87121 9.77415 3.65464 9.77415 3.51928 9.76068C3.38392 9.74722 3.19442 9.74722 2.93724 9.74722V14.0688C2.95078 14.1631 2.8831 14.2439 2.78835 14.2573C2.77482 14.2573 2.76128 14.2573 2.73421 14.2573H0.162428C0.0541429 14.2573 0 14.2035 0 14.0823ZM2.95078 2.67914V7.20271C3.14028 7.21618 3.31624 7.22964 3.47867 7.22964H4.19606C4.72396 7.22964 5.25185 7.14886 5.75267 6.9873C6.18581 6.86614 6.56481 6.61034 6.86259 6.27376C7.14684 5.93719 7.2822 5.47945 7.2822 4.88707C7.29574 4.46972 7.18745 4.05237 6.97088 3.68887C6.74077 3.33883 6.41592 3.06957 6.02338 2.92147C5.52256 2.71953 4.98113 2.63875 4.42617 2.65221C4.07424 2.65221 3.76292 2.65221 3.50574 2.66568C3.23503 2.65221 3.04553 2.66568 2.95078 2.67914Z" fill="#31A8FF"/>
<path d="M18.6794 6.38151C18.2733 6.1661 17.8402 6.01801 17.3799 5.92377C16.8791 5.81606 16.3783 5.74875 15.8639 5.74875C15.5932 5.73528 15.309 5.77567 15.0518 5.84299C14.8758 5.88338 14.7269 5.97762 14.6322 6.11225C14.5645 6.21995 14.5239 6.35458 14.5239 6.47575C14.5239 6.59692 14.5781 6.71808 14.6593 6.82579C14.7811 6.97388 14.9435 7.09505 15.1195 7.18929C15.4308 7.35085 15.7557 7.49894 16.0805 7.63357C16.8114 7.8759 17.5153 8.21248 18.165 8.61637C18.6117 8.89909 18.9772 9.27606 19.2343 9.7338C19.4509 10.1646 19.5592 10.6358 19.5456 11.1205C19.5592 11.7533 19.3697 12.386 19.0178 12.9111C18.6388 13.4496 18.1109 13.8669 17.5018 14.1093C16.8385 14.392 16.0264 14.5401 15.0518 14.5401C14.4292 14.5401 13.8201 14.4862 13.2109 14.3651C12.7372 14.2843 12.2634 14.1362 11.8303 13.9343C11.7356 13.8804 11.6679 13.7862 11.6814 13.6785V11.3359C11.6814 11.2955 11.6949 11.2417 11.7356 11.2147C11.7762 11.1878 11.8168 11.2013 11.8574 11.2282C12.3853 11.5378 12.9402 11.7533 13.5358 11.8879C14.0502 12.0225 14.5916 12.0898 15.133 12.0898C15.6474 12.0898 16.0128 12.0225 16.2565 11.9013C16.473 11.8071 16.6219 11.5782 16.6219 11.3359C16.6219 11.1474 16.5137 10.9724 16.2971 10.7974C16.0805 10.6224 15.6338 10.4204 14.9706 10.1646C14.2803 9.92228 13.6441 9.59917 13.0485 9.19528C12.6289 8.89909 12.277 8.50866 12.0198 8.05092C11.8032 7.62011 11.6949 7.1489 11.7085 6.67769C11.7085 6.09878 11.8709 5.5468 12.1687 5.04867C12.5071 4.51015 13.0079 4.07933 13.5899 3.81007C14.2261 3.48696 15.0247 3.33887 15.9858 3.33887C16.5407 3.33887 17.1092 3.37926 17.6642 3.46003C18.0703 3.51389 18.4628 3.62159 18.8283 3.76968C18.8824 3.78315 18.9365 3.837 18.9636 3.89085C18.9772 3.9447 18.9907 3.99855 18.9907 4.05241V6.24688C18.9907 6.30073 18.9636 6.35458 18.923 6.38151C18.8012 6.40843 18.7335 6.40843 18.6794 6.38151Z" fill="#31A8FF"/>
</svg>
