<svg width="20" height="22" viewBox="0 0 20 22" fill="none" xmlns="http://www.w3.org/2000/svg">
<g clip-path="url(#clip0_238_931)">
<path fill-rule="evenodd" clip-rule="evenodd" d="M0.418036 13.7102C0.406731 13.7167 0.397345 13.726 0.39082 13.7372C0.384294 13.7484 0.380859 13.7611 0.380859 13.774C0.380859 13.787 0.384294 13.7997 0.39082 13.8109C0.397345 13.8221 0.406731 13.8314 0.418036 13.8378L5.06137 16.4921C5.08393 16.5048 5.10265 16.5232 5.11555 16.5454C5.12845 16.5677 5.13507 16.593 5.1347 16.6186V21.9261C5.1347 21.9833 5.19693 22.0185 5.24581 21.9899L9.88915 19.3356C9.91188 19.3229 9.9307 19.3043 9.94362 19.2819C9.95653 19.2594 9.96305 19.2339 9.96248 19.208V13.8598C9.96285 13.8342 9.95623 13.8089 9.94333 13.7866C9.93043 13.7644 9.91171 13.746 9.88915 13.7333L5.1347 11.0163L0.418036 13.7102ZM0.418036 2.67284C0.406988 2.67938 0.397843 2.68865 0.391492 2.69973C0.385142 2.71082 0.381804 2.72334 0.381804 2.73609C0.381804 2.74883 0.385142 2.76136 0.391492 2.77244C0.397843 2.78353 0.406988 2.7928 0.418036 2.79934L5.06137 5.45364C5.0841 5.46636 5.10293 5.48494 5.11584 5.50741C5.12875 5.52988 5.13527 5.55539 5.1347 5.58124V11.0152L9.96248 8.25424V2.82024C9.96285 2.79458 9.95623 2.76929 9.94333 2.74704C9.93043 2.72478 9.91171 2.70637 9.88915 2.69374L5.20915 0.0196375C5.1868 0.00646504 5.16127 -0.000488281 5.13526 -0.000488281C5.10925 -0.000488281 5.08372 0.00646504 5.06137 0.0196375L0.418036 2.67284ZM9.96248 8.25424L14.7169 10.9723C14.7397 10.9851 14.7585 11.0036 14.7714 11.0261C14.7843 11.0486 14.7908 11.0741 14.7903 11.0999V16.4074C14.7903 16.4635 14.8525 16.4987 14.9014 16.4712L19.5447 13.8158C19.5673 13.8032 19.586 13.7848 19.5989 13.7625C19.6118 13.7403 19.6184 13.715 19.618 13.6893V8.34004C19.6186 8.31419 19.6121 8.28868 19.5992 8.26621C19.5863 8.24374 19.5674 8.22516 19.5447 8.21244L14.8647 5.53944C14.8424 5.52626 14.8168 5.51931 14.7908 5.51931C14.7648 5.51931 14.7393 5.52626 14.7169 5.53944L9.96248 8.25424Z" fill="#0044FF"/>
</g>
<defs>
<clipPath id="clip0_238_931">
<rect width="20" height="22" fill="white"/>
</clipPath>
</defs>
</svg>
