<svg width="13" height="20" viewBox="0 0 13 20" fill="none" xmlns="http://www.w3.org/2000/svg">
<g clip-path="url(#clip0_238_654)">
<path d="M0 16.6668C0 14.8259 1.45508 13.3335 3.25 13.3335H6.5V16.6668C6.5 18.5078 5.04492 20.0002 3.25 20.0002C1.45508 20.0002 0 18.5078 0 16.6668Z" fill="#24CB71"/>
<path d="M6.5 0V6.66667H9.75C11.5449 6.66667 13 5.17428 13 3.33333C13 1.49239 11.5449 0 9.75 0H6.5Z" fill="#FF7237"/>
<path d="M9.72266 13.3332C11.5176 13.3332 12.9727 11.8408 12.9727 9.99984C12.9727 8.15889 11.5176 6.6665 9.72266 6.6665C7.92773 6.6665 6.47266 8.15889 6.47266 9.99984C6.47266 11.8408 7.92773 13.3332 9.72266 13.3332Z" fill="#00B6FF"/>
<path d="M0 3.33333C0 5.17428 1.45508 6.66667 3.25 6.66667H6.5V0H3.25C1.45508 0 0 1.49239 0 3.33333Z" fill="#FF3737"/>
<path d="M0 9.99984C0 11.8408 1.45508 13.3332 3.25 13.3332H6.5V6.6665H3.25C1.45508 6.6665 0 8.15889 0 9.99984Z" fill="#874FFF"/>
</g>
<defs>
<clipPath id="clip0_238_654">
<rect width="13" height="20" fill="white"/>
</clipPath>
</defs>
</svg>
